<svg width="188" height="44" viewBox="0 0 188 44" fill="none" xmlns="http://www.w3.org/2000/svg">
<path d="M175.97 34.3345L173.762 28.9105H160.85L158.786 34.2865C158.498 35.0065 158.354 35.6305 158.354 36.1585C158.354 37.6945 159.554 38.2225 162.482 38.3185V39.9985H152.594V38.3185C153.938 38.1265 154.898 37.8385 155.426 36.5425L165.89 9.66247L164.402 6.06247H171.89L184.226 36.5425C184.754 37.8385 185.762 38.1265 187.058 38.3185V39.9985H172.37V38.3185C175.202 38.2225 176.402 37.7425 176.402 36.2065C176.402 35.6785 176.258 35.0545 175.97 34.3345ZM167.186 12.3985L161.618 26.8465H172.946L167.186 12.3985Z" fill="black"/>
<path d="M148.49 11.3045V35.0165C148.49 37.6565 148.97 37.9445 152.33 38.3285V40.0084H137.594V38.3285C140.954 37.9445 141.434 37.6565 141.434 35.0165V11.3045C141.434 8.66447 140.954 8.37647 137.594 7.99247V6.31247H152.33V7.99247C148.97 8.37647 148.49 8.66447 148.49 11.3045Z" fill="black"/>
<path d="M126.762 14.0938C133.194 14.0938 136.554 18.3657 136.554 24.1257V25.2297H120.906C120.714 31.9497 124.17 35.9338 128.874 35.9338C132.138 35.9338 134.298 34.5418 136.026 32.0458L136.794 32.4777C135.546 37.2297 132.042 40.4936 126.522 40.4936C119.562 40.4936 114.906 35.3577 114.906 27.9657C114.906 19.7577 120.186 14.0938 126.762 14.0938ZM126.282 15.8697C123.114 15.8697 121.386 19.0378 121.002 23.4538H130.602C130.602 18.9418 129.402 15.8697 126.282 15.8697Z" fill="black"/>
<path d="M89.1947 36.3099V7.22188L86.3147 5.73388V4.72588L94.8107 2.42188H95.8667V18.7899C97.8827 16.3899 100.667 14.0859 104.699 14.0859C109.211 14.0859 111.611 16.7259 111.611 21.9579V36.3099C111.611 37.9899 112.379 38.2779 114.587 38.4219V40.006H102.011V38.4219C104.219 38.2779 104.939 37.9899 104.939 36.3099V22.2939C104.939 19.5099 103.835 18.1179 101.195 18.1179C99.2267 18.1179 97.4027 19.0299 95.8667 20.0859V36.3099C95.8667 37.9899 96.5867 38.2779 98.7947 38.4219V40.006H86.2188V38.4219C88.4267 38.2779 89.1947 37.9899 89.1947 36.3099Z" fill="black"/>
<path d="M79.0855 8.32812V14.5681H85.3255V16.7761H79.0855V32.6641C79.0855 35.5921 80.1895 36.8401 82.4455 36.8401C83.7895 36.8401 84.8455 36.4081 86.0455 35.4961L86.6215 36.3601C85.0855 38.7601 82.6855 40.488 79.2295 40.488C75.2935 40.488 72.4135 38.4241 72.4135 33.0481V16.7761H69.4375V15.6721C72.7495 14.1841 75.5815 11.4961 77.6455 8.32812H79.0855Z" fill="black"/>
<path d="M60.3908 3.375H67.1587V3.711L59.4308 11.343H57.7508L60.3908 3.375ZM59.5747 14.079C66.0067 14.079 69.3667 18.351 69.3667 24.111V25.215H53.7188C53.5267 31.935 56.9827 35.919 61.6867 35.919C64.9507 35.919 67.1107 34.527 68.8387 32.031L69.6067 32.463C68.3587 37.215 64.8548 40.4792 59.3348 40.4792C52.3748 40.4792 47.7188 35.343 47.7188 27.951C47.7188 19.743 52.9987 14.079 59.5747 14.079ZM59.0947 15.855C55.9267 15.855 54.1988 19.023 53.8148 23.439H63.4147C63.4147 18.927 62.2147 15.855 59.0947 15.855Z" fill="black"/>
<path d="M44.2104 2.42188V36.3099C44.2104 37.9899 44.9784 38.2779 47.1864 38.4219V40.006H34.5625V38.4219C36.7705 38.2779 37.5385 37.9899 37.5385 36.3099V7.22188L34.6585 5.73388V4.72588L43.1544 2.42188H44.2104Z" fill="black"/>
<path d="M23.626 34.3345L21.418 28.9105H8.506L6.442 34.2865C6.154 35.0065 6.01 35.6305 6.01 36.1585C6.01 37.6945 7.21 38.2225 10.138 38.3185V39.9985H0.25V38.3185C1.594 38.1265 2.554 37.8385 3.082 36.5425L13.546 9.66247L12.058 6.06247H19.546L31.882 36.5425C32.41 37.8385 33.418 38.1265 34.714 38.3185V39.9985H20.026V38.3185C22.858 38.2225 24.058 37.7425 24.058 36.2065C24.058 35.6785 23.914 35.0545 23.626 34.3345ZM14.842 12.3985L9.274 26.8465H20.602L14.842 12.3985Z" fill="black"/>
</svg>
