<svg width="47" height="11" viewBox="0 0 47 11" fill="none" xmlns="http://www.w3.org/2000/svg">
<path d="M43.9924 8.58362L43.4404 7.22762H40.2124L39.6964 8.57162C39.6244 8.75162 39.5884 8.90763 39.5884 9.03963C39.5884 9.42363 39.8884 9.55563 40.6204 9.57963V9.99963H38.1484V9.57963C38.4844 9.53163 38.7244 9.45962 38.8564 9.13562L41.4724 2.41562L41.1004 1.51562H42.9724L46.0564 9.13562C46.1884 9.45962 46.4404 9.53163 46.7644 9.57963V9.99963H43.0924V9.57963C43.8004 9.55563 44.1004 9.43563 44.1004 9.05163C44.1004 8.91963 44.0644 8.76362 43.9924 8.58362ZM41.7964 3.09962L40.4044 6.71163H43.2364L41.7964 3.09962Z" fill="url(#paint0_radial_1670_3688)"/>
<path d="M37.1224 2.82612V8.75413C37.1224 9.41413 37.2424 9.48612 38.0824 9.58212V10.0021H34.3984V9.58212C35.2384 9.48612 35.3584 9.41413 35.3584 8.75413V2.82612C35.3584 2.16612 35.2384 2.09412 34.3984 1.99812V1.57812H38.0824V1.99812C37.2424 2.09412 37.1224 2.16612 37.1224 2.82612Z" fill="url(#paint1_radial_1670_3688)"/>
<path d="M31.6906 3.52344C33.2986 3.52344 34.1386 4.59144 34.1386 6.03144V6.30744H30.2266C30.1786 7.98744 31.0426 8.98344 32.2186 8.98344C33.0346 8.98344 33.5746 8.63544 34.0066 8.01144L34.1986 8.11944C33.8866 9.30744 33.0106 10.1234 31.6306 10.1234C29.8906 10.1234 28.7266 8.83944 28.7266 6.99144C28.7266 4.93944 30.0466 3.52344 31.6906 3.52344ZM31.5706 3.96744C30.7786 3.96744 30.3466 4.75944 30.2506 5.86344H32.6506C32.6506 4.73544 32.3506 3.96744 31.5706 3.96744Z" fill="black"/>
<path d="M22.2987 9.07747V1.80547L21.5787 1.43347V1.18147L23.7027 0.605469H23.9667V4.69747C24.4707 4.09747 25.1667 3.52147 26.1747 3.52147C27.3027 3.52147 27.9027 4.18147 27.9027 5.48947V9.07747C27.9027 9.49747 28.0947 9.56947 28.6467 9.60547V10.0015H25.5027V9.60547C26.0547 9.56947 26.2347 9.49747 26.2347 9.07747V5.57347C26.2347 4.87747 25.9587 4.52947 25.2987 4.52947C24.8067 4.52947 24.3507 4.75747 23.9667 5.02147V9.07747C23.9667 9.49747 24.1467 9.56947 24.6987 9.60547V10.0015H21.5547V9.60547C22.1067 9.56947 22.2987 9.49747 22.2987 9.07747Z" fill="black"/>
<path d="M19.7714 2.08203V3.64203H21.3314V4.19403H19.7714V8.16603C19.7714 8.89803 20.0474 9.21003 20.6114 9.21003C20.9474 9.21003 21.2114 9.10203 21.5114 8.87403L21.6554 9.09003C21.2714 9.69003 20.6714 10.122 19.8074 10.122C18.8234 10.122 18.1034 9.60603 18.1034 8.26203V4.19403H17.3594V3.91803C18.1874 3.54603 18.8954 2.87403 19.4114 2.08203H19.7714Z" fill="black"/>
<path d="M15.0977 0.84375H16.7897V0.92775L14.8577 2.83575H14.4377L15.0977 0.84375ZM14.8937 3.51975C16.5017 3.51975 17.3417 4.58775 17.3417 6.02775V6.30375H13.4297C13.3817 7.98375 14.2457 8.97975 15.4217 8.97975C16.2377 8.97975 16.7777 8.63175 17.2097 8.00775L17.4017 8.11575C17.0897 9.30375 16.2137 10.1198 14.8337 10.1198C13.0937 10.1198 11.9297 8.83575 11.9297 6.98775C11.9297 4.93575 13.2497 3.51975 14.8937 3.51975ZM14.7737 3.96375C13.9817 3.96375 13.5497 4.75575 13.4537 5.85975H15.8537C15.8537 4.73175 15.5537 3.96375 14.7737 3.96375Z" fill="black"/>
<path d="M11.0526 0.605469V9.07747C11.0526 9.49747 11.2446 9.56947 11.7966 9.60547V10.0015H8.64062V9.60547C9.19263 9.56947 9.38463 9.49747 9.38463 9.07747V1.80547L8.66463 1.43347V1.18147L10.7886 0.605469H11.0526Z" fill="black"/>
<path d="M5.9065 8.58362L5.3545 7.22762H2.1265L1.6105 8.57162C1.5385 8.75162 1.5025 8.90763 1.5025 9.03963C1.5025 9.42363 1.8025 9.55563 2.5345 9.57963V9.99963H0.0625V9.57963C0.3985 9.53163 0.6385 9.45962 0.7705 9.13562L3.3865 2.41562L3.0145 1.51562H4.8865L7.9705 9.13562C8.1025 9.45962 8.3545 9.53163 8.6785 9.57963V9.99963H5.0065V9.57963C5.7145 9.55563 6.0145 9.43563 6.0145 9.05163C6.0145 8.91963 5.9785 8.76362 5.9065 8.58362ZM3.7105 3.09962L2.3185 6.71163H5.1505L3.7105 3.09962Z" fill="black"/>
<defs>
<radialGradient id="paint0_radial_1670_3688" cx="0" cy="0" r="1" gradientUnits="userSpaceOnUse" gradientTransform="translate(33.5042 10.9996) rotate(-38.047) scale(14.6031 45.7618)">
<stop stop-color="#8B37FF"/>
<stop offset="1" stop-color="#4BCBEB"/>
</radialGradient>
<radialGradient id="paint1_radial_1670_3688" cx="0" cy="0" r="1" gradientUnits="userSpaceOnUse" gradientTransform="translate(33.5062 11.0021) rotate(-38.047) scale(14.6031 45.7618)">
<stop stop-color="#8B37FF"/>
<stop offset="1" stop-color="#4BCBEB"/>
</radialGradient>
</defs>
</svg>
